<svg width="261" height="61" viewBox="0 0 261 61" fill="none" xmlns="http://www.w3.org/2000/svg">
<g filter="url(#filter0_d_96_6193)">
<path d="M0.5 16.5C0.5 7.66344 7.66344 0.5 16.5 0.5H240.5C249.337 0.5 256.5 7.66344 256.5 16.5V40.5C256.5 49.3366 249.337 56.5 240.5 56.5H16.5C7.66344 56.5 0.5 49.3366 0.5 40.5V16.5Z" fill="#4650BD" shape-rendering="crispEdges"/>
<path d="M17.2294 28.3C17.2294 27.4333 17.3827 26.5867 17.6894 25.76C18.0094 24.92 18.4694 24.16 19.0694 23.48C19.6694 22.7867 20.4027 22.24 21.2694 21.84C22.136 21.4267 23.1227 21.22 24.2294 21.22C25.536 21.22 26.6627 21.5067 27.6094 22.08C28.5694 22.6533 29.2827 23.4 29.7494 24.32L27.6294 25.78C27.3894 25.2467 27.076 24.8267 26.6894 24.52C26.3027 24.2 25.8894 23.98 25.4494 23.86C25.0094 23.7267 24.576 23.66 24.1494 23.66C23.456 23.66 22.8494 23.8 22.3294 24.08C21.8227 24.36 21.396 24.7267 21.0494 25.18C20.7027 25.6333 20.4427 26.14 20.2694 26.7C20.1094 27.26 20.0294 27.82 20.0294 28.38C20.0294 29.0067 20.1294 29.6133 20.3294 30.2C20.5294 30.7733 20.8094 31.2867 21.1694 31.74C21.5427 32.18 21.9827 32.5333 22.4894 32.8C23.0094 33.0533 23.576 33.18 24.1894 33.18C24.6294 33.18 25.076 33.1067 25.5294 32.96C25.9827 32.8133 26.4027 32.58 26.7894 32.26C27.176 31.94 27.476 31.5267 27.6894 31.02L29.9494 32.32C29.6694 33.0267 29.2094 33.6267 28.5694 34.12C27.9427 34.6133 27.236 34.9867 26.4494 35.24C25.6627 35.4933 24.8827 35.62 24.1094 35.62C23.096 35.62 22.1694 35.4133 21.3294 35C20.4894 34.5733 19.7627 34.0133 19.1494 33.32C18.5494 32.6133 18.076 31.8267 17.7294 30.96C17.396 30.08 17.2294 29.1933 17.2294 28.3ZM36.3413 35.7C35.4879 35.7 34.7213 35.56 34.0413 35.28C33.3613 34.9867 32.7813 34.5867 32.3013 34.08C31.8346 33.5733 31.4746 32.9933 31.2213 32.34C30.9679 31.6867 30.8413 31 30.8413 30.28C30.8413 29.5467 30.9679 28.8533 31.2213 28.2C31.4746 27.5467 31.8346 26.9667 32.3013 26.46C32.7813 25.9533 33.3613 25.56 34.0413 25.28C34.7213 24.9867 35.4879 24.84 36.3413 24.84C37.1946 24.84 37.9546 24.9867 38.6213 25.28C39.3013 25.56 39.8813 25.9533 40.3613 26.46C40.8413 26.9667 41.2013 27.5467 41.4413 28.2C41.6946 28.8533 41.8213 29.5467 41.8213 30.28C41.8213 31 41.6946 31.6867 41.4413 32.34C41.2013 32.9933 40.8413 33.5733 40.3613 34.08C39.8946 34.5867 39.3213 34.9867 38.6413 35.28C37.9613 35.56 37.1946 35.7 36.3413 35.7ZM33.6013 30.28C33.6013 30.8933 33.7213 31.44 33.9613 31.92C34.2013 32.3867 34.5279 32.7533 34.9413 33.02C35.3546 33.2867 35.8213 33.42 36.3413 33.42C36.8479 33.42 37.3079 33.2867 37.7213 33.02C38.1346 32.74 38.4613 32.3667 38.7013 31.9C38.9546 31.42 39.0813 30.8733 39.0813 30.26C39.0813 29.66 38.9546 29.12 38.7013 28.64C38.4613 28.16 38.1346 27.7867 37.7213 27.52C37.3079 27.2533 36.8479 27.12 36.3413 27.12C35.8213 27.12 35.3546 27.26 34.9413 27.54C34.5279 27.8067 34.2013 28.18 33.9613 28.66C33.7213 29.1267 33.6013 29.6667 33.6013 30.28ZM59.9102 35.5H57.2302V29.62C57.2302 28.7933 57.0835 28.1867 56.7902 27.8C56.5102 27.4 56.1168 27.2 55.6102 27.2C55.0902 27.2 54.5902 27.4067 54.1102 27.82C53.6435 28.22 53.3102 28.7467 53.1102 29.4V35.5H50.4302V29.62C50.4302 28.78 50.2835 28.1667 49.9902 27.78C49.7102 27.3933 49.3168 27.2 48.8102 27.2C48.2902 27.2 47.7902 27.4 47.3102 27.8C46.8435 28.2 46.5102 28.7267 46.3102 29.38V35.5H43.6302V25.02H46.0502V26.96C46.4502 26.28 46.9835 25.76 47.6502 25.4C48.3168 25.0267 49.0835 24.84 49.9502 24.84C50.8168 24.84 51.4902 25.0533 51.9702 25.48C52.4635 25.9067 52.7768 26.4333 52.9102 27.06C53.3368 26.34 53.8768 25.7933 54.5302 25.42C55.1968 25.0333 55.9435 24.84 56.7702 24.84C57.4235 24.84 57.9502 24.96 58.3502 25.2C58.7635 25.4267 59.0835 25.74 59.3102 26.14C59.5368 26.5267 59.6902 26.9667 59.7702 27.46C59.8635 27.9533 59.9102 28.4533 59.9102 28.96V35.5ZM68.5234 35.7C67.7101 35.7 66.9901 35.52 66.3634 35.16C65.7501 34.7867 65.2701 34.2867 64.9234 33.66V39.76H62.2434V25.02H64.5834V26.82C64.9834 26.2067 65.4901 25.7267 66.1034 25.38C66.7168 25.02 67.4168 24.84 68.2034 24.84C68.9101 24.84 69.5568 24.98 70.1434 25.26C70.7434 25.54 71.2634 25.9333 71.7034 26.44C72.1434 26.9333 72.4834 27.5067 72.7234 28.16C72.9768 28.8 73.1034 29.4933 73.1034 30.24C73.1034 31.2533 72.9034 32.1733 72.5034 33C72.1168 33.8267 71.5768 34.4867 70.8834 34.98C70.2034 35.46 69.4168 35.7 68.5234 35.7ZM67.6234 33.42C68.0368 33.42 68.4101 33.3333 68.7434 33.16C69.0768 32.9867 69.3634 32.7533 69.6034 32.46C69.8568 32.1533 70.0434 31.8133 70.1634 31.44C70.2968 31.0533 70.3634 30.6533 70.3634 30.24C70.3634 29.8 70.2901 29.3933 70.1434 29.02C70.0101 28.6467 69.8101 28.32 69.5434 28.04C69.2768 27.7467 68.9634 27.52 68.6034 27.36C68.2568 27.2 67.8768 27.12 67.4634 27.12C67.2101 27.12 66.9501 27.1667 66.6834 27.26C66.4301 27.34 66.1834 27.46 65.9434 27.62C65.7034 27.78 65.4901 27.9667 65.3034 28.18C65.1301 28.3933 65.0034 28.6267 64.9234 28.88V31.34C65.0834 31.7267 65.2968 32.08 65.5634 32.4C65.8434 32.72 66.1634 32.9733 66.5234 33.16C66.8834 33.3333 67.2501 33.42 67.6234 33.42ZM81.1592 27.34C80.3459 27.34 79.6192 27.5 78.9792 27.82C78.3392 28.1267 77.8792 28.5733 77.5992 29.16V35.5H74.9192V25.02H77.3792V27.26C77.7526 26.54 78.2259 25.9733 78.7992 25.56C79.3726 25.1467 79.9792 24.92 80.6192 24.88C80.7659 24.88 80.8792 24.88 80.9592 24.88C81.0392 24.88 81.1059 24.8867 81.1592 24.9V27.34ZM81.875 32.4C81.875 31.72 82.0617 31.1267 82.435 30.62C82.8217 30.1 83.355 29.7 84.035 29.42C84.715 29.14 85.495 29 86.375 29C86.815 29 87.2617 29.0333 87.715 29.1C88.1683 29.1667 88.5617 29.2733 88.895 29.42V28.86C88.895 28.1933 88.695 27.68 88.295 27.32C87.9083 26.96 87.3283 26.78 86.555 26.78C85.9817 26.78 85.435 26.88 84.915 27.08C84.395 27.28 83.8483 27.5733 83.275 27.96L82.415 26.2C83.1083 25.7467 83.815 25.4067 84.535 25.18C85.2683 24.9533 86.035 24.84 86.835 24.84C88.3283 24.84 89.4883 25.2133 90.315 25.96C91.155 26.7067 91.575 27.7733 91.575 29.16V32.5C91.575 32.78 91.6217 32.98 91.715 33.1C91.8217 33.22 91.9883 33.2933 92.215 33.32V35.5C91.975 35.54 91.755 35.5733 91.555 35.6C91.3683 35.6267 91.2083 35.64 91.075 35.64C90.5417 35.64 90.135 35.52 89.855 35.28C89.5883 35.04 89.4217 34.7467 89.355 34.4L89.295 33.86C88.8417 34.4467 88.275 34.9 87.595 35.22C86.915 35.54 86.2217 35.7 85.515 35.7C84.8217 35.7 84.195 35.56 83.635 35.28C83.0883 34.9867 82.655 34.5933 82.335 34.1C82.0283 33.5933 81.875 33.0267 81.875 32.4ZM88.395 32.94C88.5417 32.78 88.6617 32.62 88.755 32.46C88.8483 32.3 88.895 32.1533 88.895 32.02V30.96C88.575 30.8267 88.2283 30.7267 87.855 30.66C87.4817 30.58 87.1283 30.54 86.795 30.54C86.1017 30.54 85.5283 30.6933 85.075 31C84.635 31.2933 84.415 31.6867 84.415 32.18C84.415 32.4467 84.4883 32.7 84.635 32.94C84.7817 33.18 84.995 33.3733 85.275 33.52C85.555 33.6667 85.8883 33.74 86.275 33.74C86.675 33.74 87.0683 33.6667 87.455 33.52C87.8417 33.36 88.155 33.1667 88.395 32.94ZM100.319 27.34C99.506 27.34 98.7794 27.5 98.1394 27.82C97.4994 28.1267 97.0394 28.5733 96.7594 29.16V35.5H94.0794V25.02H96.5394V27.26C96.9127 26.54 97.386 25.9733 97.9594 25.56C98.5327 25.1467 99.1394 24.92 99.7794 24.88C99.926 24.88 100.039 24.88 100.119 24.88C100.199 24.88 100.266 24.8867 100.319 24.9V27.34ZM106.169 35.5V25.02H108.849V35.5H106.169ZM106.169 23.56V20.9H108.849V23.56H106.169ZM121.007 35.5H118.327V29.62C118.327 28.78 118.18 28.1667 117.887 27.78C117.594 27.3933 117.187 27.2 116.667 27.2C116.307 27.2 115.94 27.2933 115.567 27.48C115.207 27.6667 114.88 27.9267 114.587 28.26C114.294 28.58 114.08 28.9533 113.947 29.38V35.5H111.267V25.02H113.687V26.96C113.954 26.5067 114.294 26.1267 114.707 25.82C115.12 25.5 115.594 25.26 116.127 25.1C116.674 24.9267 117.247 24.84 117.847 24.84C118.5 24.84 119.034 24.96 119.447 25.2C119.874 25.4267 120.194 25.74 120.407 26.14C120.634 26.5267 120.787 26.9667 120.867 27.46C120.96 27.9533 121.007 28.4533 121.007 28.96V35.5ZM127.437 35.56C126.744 35.56 126.104 35.4267 125.517 35.16C124.944 34.88 124.444 34.4933 124.017 34C123.604 33.5067 123.284 32.94 123.057 32.3C122.831 31.66 122.717 30.98 122.717 30.26C122.717 29.5 122.837 28.7933 123.077 28.14C123.317 27.4867 123.651 26.9133 124.077 26.42C124.517 25.9133 125.031 25.5267 125.617 25.26C126.217 24.98 126.877 24.84 127.597 24.84C128.411 24.84 129.124 25.0267 129.737 25.4C130.351 25.76 130.857 26.2467 131.257 26.86V25.02H133.597V35C133.597 36.04 133.344 36.9267 132.837 37.66C132.344 38.4067 131.657 38.9733 130.777 39.36C129.897 39.76 128.897 39.96 127.777 39.96C126.644 39.96 125.684 39.7667 124.897 39.38C124.111 39.0067 123.437 38.4733 122.877 37.78L124.337 36.36C124.737 36.8533 125.237 37.24 125.837 37.52C126.451 37.8 127.097 37.94 127.777 37.94C128.351 37.94 128.871 37.8333 129.337 37.62C129.817 37.42 130.197 37.1 130.477 36.66C130.771 36.2333 130.917 35.68 130.917 35V33.68C130.571 34.28 130.077 34.7467 129.437 35.08C128.811 35.4 128.144 35.56 127.437 35.56ZM128.337 33.42C128.631 33.42 128.911 33.3733 129.177 33.28C129.444 33.1867 129.691 33.06 129.917 32.9C130.144 32.74 130.344 32.5533 130.517 32.34C130.691 32.1133 130.824 31.8867 130.917 31.66V29.16C130.757 28.7467 130.531 28.3867 130.237 28.08C129.957 27.7733 129.637 27.54 129.277 27.38C128.931 27.2067 128.564 27.12 128.177 27.12C127.764 27.12 127.391 27.2067 127.057 27.38C126.724 27.5533 126.437 27.8 126.197 28.12C125.957 28.4267 125.771 28.7733 125.637 29.16C125.517 29.5333 125.457 29.9267 125.457 30.34C125.457 30.7667 125.531 31.1667 125.677 31.54C125.824 31.9133 126.024 32.24 126.277 32.52C126.544 32.8 126.851 33.02 127.197 33.18C127.557 33.34 127.937 33.42 128.337 33.42ZM142.253 27.34C141.44 27.34 140.713 27.5 140.073 27.82C139.433 28.1267 138.973 28.5733 138.693 29.16V35.5H136.013V25.02H138.473V27.26C138.846 26.54 139.32 25.9733 139.893 25.56C140.466 25.1467 141.073 24.92 141.713 24.88C141.86 24.88 141.973 24.88 142.053 24.88C142.133 24.88 142.2 24.8867 142.253 24.9V27.34ZM148.471 35.7C147.631 35.7 146.871 35.56 146.191 35.28C145.511 34.9867 144.931 34.5933 144.451 34.1C143.971 33.5933 143.597 33.02 143.331 32.38C143.077 31.7267 142.951 31.04 142.951 30.32C142.951 29.32 143.171 28.4067 143.611 27.58C144.064 26.7533 144.704 26.0933 145.531 25.6C146.371 25.0933 147.357 24.84 148.491 24.84C149.637 24.84 150.617 25.0933 151.431 25.6C152.244 26.0933 152.864 26.7533 153.291 27.58C153.731 28.3933 153.951 29.2733 153.951 30.22C153.951 30.38 153.944 30.5467 153.931 30.72C153.917 30.88 153.904 31.0133 153.891 31.12H145.791C145.844 31.6533 145.997 32.12 146.251 32.52C146.517 32.92 146.851 33.2267 147.251 33.44C147.664 33.64 148.104 33.74 148.571 33.74C149.104 33.74 149.604 33.6133 150.071 33.36C150.551 33.0933 150.877 32.7467 151.051 32.32L153.351 32.96C153.097 33.4933 152.731 33.9667 152.251 34.38C151.784 34.7933 151.231 35.12 150.591 35.36C149.951 35.5867 149.244 35.7 148.471 35.7ZM145.731 29.42H151.211C151.157 28.8867 151.004 28.4267 150.751 28.04C150.511 27.64 150.191 27.3333 149.791 27.12C149.391 26.8933 148.944 26.78 148.451 26.78C147.971 26.78 147.531 26.8933 147.131 27.12C146.744 27.3333 146.424 27.64 146.171 28.04C145.931 28.4267 145.784 28.8867 145.731 29.42ZM159.443 35.7C158.55 35.7 157.697 35.5533 156.883 35.26C156.07 34.9667 155.37 34.5333 154.783 33.96L155.743 32.22C156.37 32.7267 156.983 33.1 157.583 33.34C158.197 33.58 158.783 33.7 159.343 33.7C159.863 33.7 160.277 33.6067 160.583 33.42C160.903 33.2333 161.063 32.9533 161.063 32.58C161.063 32.3267 160.977 32.1333 160.803 32C160.63 31.8533 160.377 31.7267 160.043 31.62C159.723 31.5133 159.33 31.3933 158.863 31.26C158.09 31.0067 157.443 30.76 156.923 30.52C156.403 30.28 156.01 29.98 155.743 29.62C155.49 29.2467 155.363 28.7733 155.363 28.2C155.363 27.5067 155.537 26.9133 155.883 26.42C156.243 25.9133 156.737 25.52 157.363 25.24C158.003 24.96 158.75 24.82 159.603 24.82C160.35 24.82 161.057 24.94 161.723 25.18C162.39 25.4067 162.997 25.78 163.543 26.3L162.463 28C161.93 27.5867 161.423 27.2867 160.943 27.1C160.463 26.9 159.977 26.8 159.483 26.8C159.203 26.8 158.937 26.8333 158.683 26.9C158.443 26.9667 158.243 27.08 158.083 27.24C157.937 27.3867 157.863 27.6 157.863 27.88C157.863 28.1333 157.93 28.3333 158.063 28.48C158.21 28.6133 158.423 28.7333 158.703 28.84C158.997 28.9467 159.35 29.0667 159.763 29.2C160.603 29.44 161.31 29.6867 161.883 29.94C162.47 30.1933 162.91 30.5067 163.203 30.88C163.497 31.24 163.643 31.74 163.643 32.38C163.643 33.42 163.263 34.2333 162.503 34.82C161.743 35.4067 160.723 35.7 159.443 35.7ZM169.326 35.7C168.433 35.7 167.579 35.5533 166.766 35.26C165.953 34.9667 165.253 34.5333 164.666 33.96L165.626 32.22C166.253 32.7267 166.866 33.1 167.466 33.34C168.079 33.58 168.666 33.7 169.226 33.7C169.746 33.7 170.159 33.6067 170.466 33.42C170.786 33.2333 170.946 32.9533 170.946 32.58C170.946 32.3267 170.859 32.1333 170.686 32C170.513 31.8533 170.259 31.7267 169.926 31.62C169.606 31.5133 169.213 31.3933 168.746 31.26C167.973 31.0067 167.326 30.76 166.806 30.52C166.286 30.28 165.893 29.98 165.626 29.62C165.373 29.2467 165.246 28.7733 165.246 28.2C165.246 27.5067 165.419 26.9133 165.766 26.42C166.126 25.9133 166.619 25.52 167.246 25.24C167.886 24.96 168.633 24.82 169.486 24.82C170.233 24.82 170.939 24.94 171.606 25.18C172.273 25.4067 172.879 25.78 173.426 26.3L172.346 28C171.813 27.5867 171.306 27.2867 170.826 27.1C170.346 26.9 169.859 26.8 169.366 26.8C169.086 26.8 168.819 26.8333 168.566 26.9C168.326 26.9667 168.126 27.08 167.966 27.24C167.819 27.3867 167.746 27.6 167.746 27.88C167.746 28.1333 167.813 28.3333 167.946 28.48C168.093 28.6133 168.306 28.7333 168.586 28.84C168.879 28.9467 169.233 29.0667 169.646 29.2C170.486 29.44 171.193 29.6867 171.766 29.94C172.353 30.1933 172.793 30.5067 173.086 30.88C173.379 31.24 173.526 31.74 173.526 32.38C173.526 33.42 173.146 34.2333 172.386 34.82C171.626 35.4067 170.606 35.7 169.326 35.7ZM180.189 35.7C179.336 35.7 178.569 35.56 177.889 35.28C177.209 34.9867 176.629 34.5867 176.149 34.08C175.682 33.5733 175.322 32.9933 175.069 32.34C174.816 31.6867 174.689 31 174.689 30.28C174.689 29.5467 174.816 28.8533 175.069 28.2C175.322 27.5467 175.682 26.9667 176.149 26.46C176.629 25.9533 177.209 25.56 177.889 25.28C178.569 24.9867 179.336 24.84 180.189 24.84C181.042 24.84 181.802 24.9867 182.469 25.28C183.149 25.56 183.729 25.9533 184.209 26.46C184.689 26.9667 185.049 27.5467 185.289 28.2C185.542 28.8533 185.669 29.5467 185.669 30.28C185.669 31 185.542 31.6867 185.289 32.34C185.049 32.9933 184.689 33.5733 184.209 34.08C183.742 34.5867 183.169 34.9867 182.489 35.28C181.809 35.56 181.042 35.7 180.189 35.7ZM177.449 30.28C177.449 30.8933 177.569 31.44 177.809 31.92C178.049 32.3867 178.376 32.7533 178.789 33.02C179.202 33.2867 179.669 33.42 180.189 33.42C180.696 33.42 181.156 33.2867 181.569 33.02C181.982 32.74 182.309 32.3667 182.549 31.9C182.802 31.42 182.929 30.8733 182.929 30.26C182.929 29.66 182.802 29.12 182.549 28.64C182.309 28.16 181.982 27.7867 181.569 27.52C181.156 27.2533 180.696 27.12 180.189 27.12C179.669 27.12 179.202 27.26 178.789 27.54C178.376 27.8067 178.049 28.18 177.809 28.66C177.569 29.1267 177.449 29.6667 177.449 30.28ZM187.998 30.16V21.16H190.678V30.16H187.998ZM187.998 35.5V32.48H190.678V35.5H187.998Z" fill="white"/>
<path d="M229.25 34.875L227.812 29.4375L232.188 25.8125L226.562 25.5L224.5 20.25L222.438 25.5L216.75 25.8125L221.188 29.4375L219.75 34.875L224.5 31.8125L229.25 34.875ZM235.938 26.625C235.438 27.1667 235.188 27.7917 235.188 28.5C235.188 29.2083 235.438 29.8333 235.938 30.375C236.479 30.9167 237.104 31.1875 237.812 31.1875V36.5C237.812 37.2083 237.542 37.8333 237 38.375C236.5 38.9167 235.896 39.1875 235.188 39.1875H213.812C213.104 39.1875 212.479 38.9167 211.938 38.375C211.438 37.8333 211.188 37.2083 211.188 36.5V31.1875C211.938 31.1875 212.562 30.9375 213.062 30.4375C213.562 29.8958 213.812 29.25 213.812 28.5C213.812 27.7917 213.542 27.1667 213 26.625C212.5 26.0833 211.896 25.8125 211.188 25.8125V20.5C211.188 19.7917 211.438 19.1667 211.938 18.625C212.479 18.0833 213.104 17.8125 213.812 17.8125H235.188C235.896 17.8125 236.5 18.0833 237 18.625C237.542 19.1667 237.812 19.7917 237.812 20.5V25.8125C237.104 25.8125 236.479 26.0833 235.938 26.625Z" fill="white"/>
</g>
<defs>
<filter id="filter0_d_96_6193" x="0.5" y="0.5" width="260" height="60" filterUnits="userSpaceOnUse" color-interpolation-filters="sRGB">
<feFlood flood-opacity="0" result="BackgroundImageFix"/>
<feColorMatrix in="SourceAlpha" type="matrix" values="0 0 0 0 0 0 0 0 0 0 0 0 0 0 0 0 0 0 127 0" result="hardAlpha"/>
<feOffset dx="4" dy="4"/>
<feComposite in2="hardAlpha" operator="out"/>
<feColorMatrix type="matrix" values="0 0 0 0 0.266667 0 0 0 0 0.266667 0 0 0 0 0.266667 0 0 0 1 0"/>
<feBlend mode="normal" in2="BackgroundImageFix" result="effect1_dropShadow_96_6193"/>
<feBlend mode="normal" in="SourceGraphic" in2="effect1_dropShadow_96_6193" result="shape"/>
</filter>
</defs>
</svg>
