<svg width="462" height="94" viewBox="0 0 462 94" fill="none" xmlns="http://www.w3.org/2000/svg">
<rect width="461" height="94" transform="translate(0.5)" fill="#008364"/>
<path d="M30.6332 64.528C29.8972 64.528 29.0012 64.48 27.9452 64.384C24.5212 64.128 21.5132 64 18.9212 64C18.2172 63.104 17.8652 62.08 17.8652 60.928C18.9212 60.928 19.6732 60.752 20.1212 60.4C20.6012 60.016 20.8412 59.376 20.8412 58.48V35.92C20.8412 35.056 20.6012 34.448 20.1212 34.096C19.6732 33.712 18.9212 33.52 17.8652 33.52C17.8652 32.304 18.2172 31.296 18.9212 30.496C21.3532 30.496 23.5452 30.432 25.4972 30.304C27.4492 30.176 28.6012 30.096 28.9532 30.064C30.0412 29.968 30.8252 29.92 31.3052 29.92C34.8572 29.92 37.8332 30.656 40.2332 32.128C42.6652 33.6 44.4572 35.6 45.6092 38.128C46.7932 40.624 47.3852 43.424 47.3852 46.528C47.3852 49.952 46.7772 53.024 45.5612 55.744C44.3772 58.432 42.5372 60.576 40.0412 62.176C37.5452 63.744 34.4092 64.528 30.6332 64.528ZM30.2492 60.544C33.0012 60.544 35.1132 59.504 36.5852 57.424C38.0892 55.312 38.8412 51.92 38.8412 47.248C38.8412 42.736 38.0412 39.36 36.4412 37.12C34.8732 34.88 32.6812 33.76 29.8652 33.76C29.3212 33.76 28.9372 33.792 28.7132 33.856V60.448C29.0332 60.512 29.5452 60.544 30.2492 60.544ZM64.7117 64.624C61.6397 64.624 58.9837 63.92 56.7437 62.512C54.5357 61.072 52.8397 59.04 51.6557 56.416C50.4717 53.792 49.8797 50.752 49.8797 47.296C49.8797 43.68 50.4877 40.576 51.7037 37.984C52.9197 35.36 54.6317 33.36 56.8397 31.984C59.0797 30.608 61.6877 29.92 64.6637 29.92C67.7357 29.92 70.3917 30.64 72.6317 32.08C74.8717 33.52 76.5837 35.552 77.7677 38.176C78.9837 40.768 79.5917 43.808 79.5917 47.296C79.5917 50.88 78.9677 53.984 77.7197 56.608C76.5037 59.2 74.7757 61.184 72.5357 62.56C70.2957 63.936 67.6877 64.624 64.7117 64.624ZM64.7117 61.12C66.4717 61.12 67.8957 60.112 68.9837 58.096C70.1037 56.08 70.6637 52.416 70.6637 47.104C70.6637 42.048 70.1517 38.512 69.1277 36.496C68.1037 34.48 66.6637 33.472 64.8077 33.472C63.0477 33.472 61.6077 34.48 60.4877 36.496C59.3997 38.512 58.8557 42.16 58.8557 47.44C58.8557 52.496 59.3677 56.048 60.3917 58.096C61.4477 60.112 62.8877 61.12 64.7117 61.12ZM122.261 30.496C122.613 30.88 122.885 31.344 123.077 31.888C123.269 32.432 123.365 32.976 123.365 33.52C122.277 33.52 121.461 33.712 120.917 34.096C120.405 34.48 120.149 35.104 120.149 35.968V58.528C120.149 59.424 120.389 60.048 120.869 60.4C121.381 60.752 122.213 60.928 123.365 60.928C123.365 61.504 123.269 62.064 123.077 62.608C122.885 63.152 122.613 63.616 122.261 64H110.357C110.037 63.616 109.781 63.152 109.589 62.608C109.397 62.064 109.301 61.504 109.301 60.928C110.421 60.928 111.253 60.752 111.797 60.4C112.341 60.016 112.613 59.392 112.613 58.528V38.656L104.453 59.248C104.037 60.24 103.461 60.928 102.725 61.312C101.989 61.664 101.029 61.84 99.8451 61.84L90.3411 38.656V58.528C90.3411 59.392 90.6451 60.016 91.2531 60.4C91.8931 60.752 92.8531 60.928 94.1331 60.928C94.1331 61.504 94.0371 62.064 93.8451 62.608C93.6531 63.152 93.3971 63.616 93.0771 64H83.0931C82.7731 63.616 82.5171 63.152 82.3251 62.608C82.1331 62.064 82.0371 61.504 82.0371 60.928C83.2211 60.928 84.0851 60.752 84.6291 60.4C85.1731 60.016 85.4451 59.392 85.4451 58.528V35.968C85.4451 35.104 85.1571 34.48 84.5811 34.096C84.0051 33.712 83.1571 33.52 82.0371 33.52C82.0371 32.976 82.1331 32.432 82.3251 31.888C82.5171 31.344 82.7891 30.88 83.1411 30.496H90.6771C92.1811 30.496 93.3811 30.72 94.2771 31.168C95.1731 31.584 95.8931 32.432 96.4371 33.712L101.525 46.24L103.445 52.192L105.269 46.24L111.317 30.496H122.261ZM127.065 64C126.745 63.616 126.489 63.152 126.297 62.608C126.105 62.064 126.009 61.504 126.009 60.928C127.065 60.928 127.801 60.752 128.217 60.4C128.665 60.048 128.889 59.424 128.889 58.528V35.968C128.889 35.072 128.665 34.448 128.217 34.096C127.801 33.712 127.065 33.52 126.009 33.52C126.009 32.976 126.105 32.432 126.297 31.888C126.489 31.344 126.745 30.88 127.065 30.496H138.729C139.049 30.88 139.305 31.344 139.497 31.888C139.689 32.432 139.785 32.976 139.785 33.52C138.729 33.52 137.977 33.712 137.529 34.096C137.113 34.448 136.905 35.072 136.905 35.968V58.528C136.905 59.424 137.113 60.048 137.529 60.4C137.977 60.752 138.729 60.928 139.785 60.928C139.785 61.504 139.689 62.064 139.497 62.608C139.305 63.152 139.049 63.616 138.729 64H127.065ZM151.244 58.528C151.244 60.16 152.412 60.976 154.748 60.976C154.748 62.096 154.38 63.104 153.644 64H143.66C142.956 63.136 142.604 62.128 142.604 60.976C143.724 60.976 144.556 60.784 145.1 60.4C145.644 60.016 145.916 59.392 145.916 58.528V35.968C145.916 34.336 144.748 33.52 142.412 33.52C142.412 32.976 142.508 32.432 142.7 31.888C142.892 31.344 143.148 30.88 143.468 30.496H150.14C151.068 30.496 151.996 30.864 152.924 31.6C153.852 32.304 154.732 33.296 155.564 34.576L166.46 51.808V35.968C166.46 35.104 166.172 34.48 165.596 34.096C165.02 33.712 164.172 33.52 163.052 33.52C163.052 32.944 163.148 32.4 163.34 31.888C163.532 31.344 163.804 30.88 164.156 30.496H174.38C174.732 30.88 175.004 31.344 175.196 31.888C175.388 32.432 175.484 32.976 175.484 33.52C174.396 33.52 173.564 33.712 172.988 34.096C172.444 34.48 172.172 35.104 172.172 35.968V64.288H170.252C168.684 64.288 167.532 64.096 166.796 63.712C166.06 63.296 165.356 62.592 164.684 61.6L151.244 41.2V58.528ZM193.658 64.672C190.298 64.672 187.37 63.952 184.874 62.512C182.378 61.072 180.458 59.072 179.114 56.512C177.77 53.952 177.098 51.024 177.098 47.728C177.098 43.888 177.754 40.64 179.066 37.984C180.41 35.328 182.266 33.328 184.634 31.984C187.002 30.64 189.738 29.968 192.842 29.968C194.858 29.968 196.794 30.32 198.65 31.024C199.13 30.8 199.818 30.576 200.714 30.352C201.642 30.128 202.362 30 202.874 29.968C203.802 32.336 204.266 35.952 204.266 40.816H199.61C199.29 38.768 198.49 37.184 197.21 36.064C195.962 34.944 194.458 34.384 192.698 34.384C190.586 34.384 188.922 35.296 187.706 37.12C186.522 38.912 185.93 42.032 185.93 46.48C185.93 51.408 186.522 54.896 187.706 56.944C188.89 58.992 190.698 60.016 193.13 60.016C194.026 60.016 194.778 59.92 195.386 59.728C195.994 59.536 196.506 59.216 196.922 58.768V53.296C196.922 52.464 196.554 51.872 195.818 51.52C195.114 51.136 193.994 50.944 192.458 50.944C192.458 50.368 192.57 49.696 192.794 48.928C193.018 48.16 193.29 47.6 193.61 47.248H203.978C205.226 47.248 206.09 47.616 206.57 48.352C207.05 49.088 207.29 49.792 207.29 50.464C207.29 50.784 207.21 51.072 207.05 51.328C205.898 51.328 205.002 51.456 204.362 51.712V57.232C204.362 58.256 204.538 58.976 204.89 59.392C205.114 59.616 205.226 59.904 205.226 60.256C205.226 60.832 204.698 61.472 203.642 62.176C202.586 62.88 201.162 63.472 199.37 63.952C197.61 64.432 195.706 64.672 193.658 64.672ZM223.805 64.624C220.733 64.624 218.077 63.92 215.837 62.512C213.629 61.072 211.933 59.04 210.749 56.416C209.565 53.792 208.973 50.752 208.973 47.296C208.973 43.68 209.581 40.576 210.797 37.984C212.013 35.36 213.725 33.36 215.933 31.984C218.173 30.608 220.781 29.92 223.757 29.92C226.829 29.92 229.485 30.64 231.725 32.08C233.965 33.52 235.677 35.552 236.861 38.176C238.077 40.768 238.685 43.808 238.685 47.296C238.685 50.88 238.061 53.984 236.813 56.608C235.597 59.2 233.869 61.184 231.629 62.56C229.389 63.936 226.781 64.624 223.805 64.624ZM223.805 61.12C225.565 61.12 226.989 60.112 228.077 58.096C229.197 56.08 229.757 52.416 229.757 47.104C229.757 42.048 229.245 38.512 228.221 36.496C227.197 34.48 225.757 33.472 223.901 33.472C222.141 33.472 220.701 34.48 219.581 36.496C218.493 38.512 217.949 42.16 217.949 47.44C217.949 52.496 218.461 56.048 219.485 58.096C220.541 60.112 221.981 61.12 223.805 61.12ZM271.727 34.816C272.367 35.072 272.991 35.648 273.599 36.544C274.239 37.44 274.703 38.304 274.991 39.136L261.119 49.216L274.991 59.728C274.703 60.528 274.239 61.392 273.599 62.32C272.991 63.216 272.367 63.792 271.727 64.048L253.823 50.512V47.968L271.727 34.816ZM295.099 56.464C295.099 58.064 295.531 59.184 296.395 59.824C297.291 60.432 298.635 60.736 300.427 60.736C300.427 61.28 300.315 61.888 300.091 62.56C299.899 63.2 299.643 63.68 299.323 64H283.627C283.275 63.68 282.987 63.2 282.763 62.56C282.571 61.888 282.475 61.28 282.475 60.736C284.171 60.736 285.467 60.416 286.363 59.776C287.291 59.136 287.755 58.032 287.755 56.464V39.088C287.755 38.064 287.035 37.552 285.595 37.552C285.115 37.552 284.587 37.616 284.011 37.744C283.467 37.84 282.987 37.984 282.571 38.176L281.275 35.776L288.763 31.408C289.755 30.832 290.555 30.448 291.163 30.256C291.803 30.032 292.363 29.92 292.843 29.92C293.643 29.92 294.219 30.192 294.571 30.736C294.923 31.248 295.099 31.84 295.099 32.512V56.464ZM327.185 53.248C327.697 53.696 328.113 54.336 328.433 55.168C328.753 56 328.913 56.88 328.913 57.808C328.913 59.6 328.257 61.136 326.945 62.416C325.665 63.664 323.569 64.288 320.657 64.288C319.569 64.288 318.129 64.16 316.337 63.904C314.353 63.648 312.705 63.52 311.393 63.52C309.057 63.52 307.089 63.856 305.489 64.528L305.537 64.48L305.441 64.528L303.905 63.328C304.225 61.6 304.801 60 305.633 58.528C306.465 57.056 307.361 55.76 308.321 54.64C309.281 53.488 310.561 52.112 312.161 50.512C313.729 48.944 314.961 47.632 315.857 46.576C316.785 45.488 317.553 44.304 318.161 43.024C318.769 41.712 319.073 40.304 319.073 38.8C319.073 36.976 318.641 35.616 317.777 34.72C316.913 33.792 315.761 33.328 314.321 33.328C312.465 33.328 311.025 34.032 310.001 35.44C310.833 35.664 311.505 36.144 312.017 36.88C312.529 37.584 312.785 38.336 312.785 39.136C312.785 40.288 312.321 41.232 311.393 41.968C310.497 42.704 309.457 43.072 308.273 43.072C307.025 43.072 305.953 42.64 305.057 41.776C304.161 40.88 303.713 39.68 303.713 38.176C303.713 36.704 304.209 35.344 305.201 34.096C306.225 32.848 307.649 31.856 309.473 31.12C311.329 30.352 313.441 29.968 315.809 29.968C319.297 29.968 322.145 30.8 324.353 32.464C326.593 34.096 327.713 36.48 327.713 39.616C327.713 41.632 327.233 43.408 326.273 44.944C325.345 46.48 324.193 47.792 322.817 48.88C321.441 49.936 319.617 51.168 317.345 52.576C315.329 53.856 313.729 54.944 312.545 55.84C311.361 56.736 310.385 57.744 309.617 58.864C310.609 58.448 311.777 58.096 313.121 57.808C314.465 57.488 315.697 57.328 316.817 57.328H319.361C320.929 57.328 322.305 56.976 323.489 56.272C324.705 55.536 325.489 54.528 325.841 53.248H327.185ZM346.96 28C347.6 28.032 348.352 28.208 349.216 28.528C350.08 28.816 350.736 29.184 351.184 29.632L336.832 73.984C336.192 73.952 335.424 73.776 334.528 73.456C333.664 73.168 333.008 72.816 332.56 72.4L346.96 28ZM369.254 64.48C360.134 64.48 355.574 58.848 355.574 47.584C355.574 41.408 356.774 36.944 359.174 34.192C361.574 31.408 364.966 30.016 369.35 30.016C373.766 30.016 377.158 31.408 379.526 34.192C381.894 36.944 383.078 41.424 383.078 47.632C383.078 58.864 378.47 64.48 369.254 64.48ZM369.254 61.12C370.31 61.12 371.222 60.768 371.99 60.064C372.758 59.328 373.366 57.968 373.814 55.984C374.262 54 374.486 51.184 374.486 47.536C374.486 43.632 374.262 40.656 373.814 38.608C373.366 36.528 372.774 35.136 372.038 34.432C371.302 33.728 370.406 33.376 369.35 33.376C368.294 33.376 367.382 33.728 366.614 34.432C365.878 35.136 365.27 36.544 364.79 38.656C364.342 40.736 364.118 43.744 364.118 47.68C364.118 51.264 364.342 54.048 364.79 56.032C365.238 58.016 365.83 59.36 366.566 60.064C367.334 60.768 368.23 61.12 369.254 61.12ZM404.202 46.24C406.858 46.24 408.986 46.96 410.586 48.4C412.218 49.808 413.034 51.872 413.034 54.592C413.034 56.544 412.426 58.256 411.21 59.728C409.994 61.2 408.298 62.352 406.122 63.184C403.978 63.984 401.546 64.384 398.826 64.384C396.586 64.384 394.586 64.096 392.826 63.52C391.066 62.944 389.674 62.112 388.65 61.024C387.658 59.936 387.162 58.656 387.162 57.184C387.162 55.84 387.53 54.8 388.266 54.064C389.034 53.328 389.994 52.96 391.146 52.96C392.234 52.96 393.114 53.28 393.786 53.92C394.49 54.56 394.842 55.344 394.842 56.272C394.842 56.784 394.73 57.328 394.506 57.904C394.282 58.48 393.946 58.96 393.498 59.344C393.85 59.632 394.378 59.824 395.082 59.92C395.818 59.984 396.81 60.016 398.058 60.016C400.01 60.016 401.514 59.536 402.57 58.576C403.626 57.584 404.154 56.24 404.154 54.544C404.154 52.688 403.69 51.12 402.762 49.84C401.834 48.56 400.394 47.904 398.442 47.872C397.226 48.192 396.282 48.416 395.61 48.544L394.65 45.664C397.498 44.928 399.45 44.016 400.506 42.928C401.562 41.84 402.09 40.496 402.09 38.896C402.09 37.36 401.642 36.112 400.746 35.152C399.882 34.192 398.73 33.712 397.29 33.712C396.49 33.712 395.802 33.824 395.226 34.048C394.682 34.272 394.186 34.672 393.738 35.248C394.186 35.44 394.57 35.776 394.89 36.256C395.242 36.704 395.418 37.232 395.418 37.84C395.418 38.64 395.082 39.376 394.41 40.048C393.738 40.72 392.826 41.056 391.674 41.056C390.458 41.056 389.514 40.672 388.842 39.904C388.17 39.136 387.834 38.144 387.834 36.928C387.834 35.52 388.346 34.304 389.37 33.28C390.394 32.224 391.77 31.424 393.498 30.88C395.226 30.336 397.13 30.064 399.21 30.064C402.602 30.064 405.354 30.752 407.466 32.128C409.578 33.504 410.634 35.376 410.634 37.744C410.634 39.472 410.074 41.056 408.954 42.496C407.834 43.904 405.898 45.168 403.146 46.288L404.202 46.24ZM441.163 50.512L423.259 64.048C422.619 63.792 421.979 63.216 421.339 62.32C420.731 61.392 420.283 60.528 419.995 59.728L433.867 49.216L419.995 39.136C420.283 38.304 420.731 37.44 421.339 36.544C421.979 35.648 422.619 35.072 423.259 34.816L441.163 47.968V50.512Z" fill="white"/>
</svg>
