<svg width="418" height="94" viewBox="0 0 418 94" fill="none" xmlns="http://www.w3.org/2000/svg">
<rect width="417" height="94" transform="translate(0.5)" fill="#008364"/>
<path d="M23.2724 52.192C23.7844 54.88 24.7924 57.008 26.2964 58.576C27.8004 60.112 29.5764 60.88 31.6244 60.88C32.9684 60.88 33.9604 60.496 34.6004 59.728C35.2404 58.96 35.5604 58.112 35.5604 57.184C35.5604 55.808 34.9524 54.656 33.7364 53.728C32.5524 52.768 30.8404 51.744 28.6004 50.656C25.5924 49.184 23.3204 47.552 21.7844 45.76C20.2484 43.968 19.4804 41.792 19.4804 39.232C19.4804 37.344 19.9444 35.712 20.8724 34.336C21.8324 32.928 23.1284 31.856 24.7604 31.12C26.3924 30.384 28.2164 30.016 30.2324 30.016C31.2884 30.016 32.4244 30.128 33.6404 30.352C34.8884 30.544 35.8804 30.848 36.6164 31.264L40.6964 30.016C41.2724 31.008 41.6404 32.384 41.8004 34.144C41.9604 35.872 42.0404 37.872 42.0404 40.144V40.864H38.0564C36.9044 36.192 34.6484 33.856 31.2884 33.856C30.0084 33.856 29.0484 34.224 28.4084 34.96C27.7684 35.664 27.4484 36.608 27.4484 37.792C27.4484 38.752 27.7044 39.584 28.2164 40.288C28.7284 40.992 29.3684 41.6 30.1364 42.112C30.9364 42.592 31.9924 43.152 33.3044 43.792C35.3204 44.784 37.0004 45.712 38.3444 46.576C39.7204 47.44 40.9044 48.592 41.8964 50.032C42.8884 51.44 43.3844 53.12 43.3844 55.072C43.3844 56.864 42.9364 58.496 42.0404 59.968C41.1444 61.408 39.8324 62.56 38.1044 63.424C36.4084 64.288 34.4244 64.72 32.1524 64.72C29.5604 64.72 26.9844 64.176 24.4244 63.088L20.7284 64.72C20.1204 63.504 19.5924 61.616 19.1444 59.056C18.6964 56.464 18.4724 54.176 18.4724 52.192H23.2724ZM73.9976 57.664C74.3176 58.688 74.8616 59.488 75.6296 60.064C76.3976 60.64 77.2136 60.928 78.0776 60.928C78.0776 61.504 77.9816 62.064 77.7896 62.608C77.5976 63.152 77.3256 63.616 76.9736 64H63.9656C63.6136 63.616 63.3416 63.152 63.1496 62.608C62.9576 62.064 62.8616 61.504 62.8616 60.928C64.6856 60.928 65.5976 60.16 65.5976 58.624C65.5976 57.984 65.4856 57.232 65.2616 56.368L64.9736 55.36H54.2216L53.9336 56.368C53.6456 57.36 53.5016 58.064 53.5016 58.48C53.5016 60.112 54.5256 60.928 56.5736 60.928C56.5736 61.504 56.4776 62.064 56.2856 62.608C56.0936 63.152 55.8216 63.616 55.4696 64H44.7656C44.4136 63.616 44.1416 63.152 43.9496 62.608C43.7576 62.064 43.6616 61.504 43.6616 60.928C44.5576 60.928 45.3736 60.672 46.1096 60.16C46.8456 59.616 47.3896 58.832 47.7416 57.808L55.6136 34.576C54.3336 34.16 52.7176 33.952 50.7656 33.952C50.7656 32.576 51.1496 31.424 51.9176 30.496H65.0696L73.9976 57.664ZM63.9176 51.616L60.5096 39.712C60.2216 38.752 59.8536 37.936 59.4056 37.264L55.2776 51.616H63.9176ZM64.4456 15.76C65.2456 15.76 65.9656 15.968 66.6056 16.384C67.2456 16.768 67.7416 17.264 68.0936 17.872C68.4456 18.48 68.6216 19.056 68.6216 19.6C68.6216 20.688 67.9656 21.856 66.6536 23.104C65.3416 24.352 63.8056 25.424 62.0456 26.32C60.3176 27.184 58.8936 27.616 57.7736 27.616C57.1016 27.616 56.5256 27.44 56.0456 27.088C55.5976 26.704 55.3256 26.144 55.2296 25.408C56.9576 24.288 58.6696 22.864 60.3656 21.136C62.0936 19.408 63.4536 17.616 64.4456 15.76ZM90.6389 64.384C89.4229 64.384 87.9989 64.336 86.3669 64.24C82.6229 64.08 79.8389 64 78.0149 64C77.3109 63.136 76.9589 62.128 76.9589 60.976C78.0469 60.976 78.8149 60.8 79.2629 60.448C79.7109 60.064 79.9349 59.424 79.9349 58.528V35.968C79.9349 35.072 79.7109 34.448 79.2629 34.096C78.8149 33.712 78.0469 33.52 76.9589 33.52C76.9589 32.368 77.3109 31.36 78.0149 30.496C79.8069 30.496 82.5749 30.448 86.3189 30.352C87.9829 30.288 89.1189 30.256 89.7269 30.256C94.7509 30.256 98.3029 31.04 100.383 32.608C102.463 34.176 103.503 36.08 103.503 38.32C103.503 40.176 103.023 41.744 102.063 43.024C101.135 44.272 99.5829 45.344 97.4069 46.24C100.255 46.816 102.287 47.728 103.503 48.976C104.719 50.224 105.327 52.096 105.327 54.592C105.327 61.12 100.431 64.384 90.6389 64.384ZM89.2949 45.088C93.5829 45.088 95.7269 43.2 95.7269 39.424C95.7269 37.632 95.2309 36.24 94.2389 35.248C93.2789 34.256 91.8069 33.76 89.8229 33.76C88.9269 33.76 88.2709 33.824 87.8549 33.952V44.992C88.4309 45.056 88.9109 45.088 89.2949 45.088ZM89.8709 60.88C94.3509 60.88 96.5909 58.944 96.5909 55.072C96.5909 52.864 96.0309 51.232 94.9109 50.176C93.7909 49.088 91.9669 48.544 89.4389 48.544L87.8549 48.592V60.736C88.7189 60.832 89.3909 60.88 89.8709 60.88ZM134.982 57.664C135.302 58.688 135.846 59.488 136.614 60.064C137.382 60.64 138.198 60.928 139.062 60.928C139.062 61.504 138.966 62.064 138.774 62.608C138.582 63.152 138.31 63.616 137.958 64H124.95C124.598 63.616 124.326 63.152 124.134 62.608C123.942 62.064 123.846 61.504 123.846 60.928C125.67 60.928 126.582 60.16 126.582 58.624C126.582 57.984 126.47 57.232 126.246 56.368L125.958 55.36H115.206L114.918 56.368C114.63 57.36 114.486 58.064 114.486 58.48C114.486 60.112 115.51 60.928 117.558 60.928C117.558 61.504 117.462 62.064 117.27 62.608C117.078 63.152 116.806 63.616 116.454 64H105.75C105.398 63.616 105.126 63.152 104.934 62.608C104.742 62.064 104.646 61.504 104.646 60.928C105.542 60.928 106.358 60.672 107.094 60.16C107.83 59.616 108.374 58.832 108.726 57.808L116.598 34.576C115.318 34.16 113.702 33.952 111.75 33.952C111.75 32.576 112.134 31.424 112.902 30.496H126.054L134.982 57.664ZM124.902 51.616L121.494 39.712C121.206 38.752 120.838 37.936 120.39 37.264L116.262 51.616H124.902ZM150.711 64.528C149.975 64.528 149.079 64.48 148.023 64.384C144.599 64.128 141.591 64 138.999 64C138.295 63.104 137.943 62.08 137.943 60.928C138.999 60.928 139.751 60.752 140.199 60.4C140.679 60.016 140.919 59.376 140.919 58.48V35.92C140.919 35.056 140.679 34.448 140.199 34.096C139.751 33.712 138.999 33.52 137.943 33.52C137.943 32.304 138.295 31.296 138.999 30.496C141.431 30.496 143.623 30.432 145.575 30.304C147.527 30.176 148.679 30.096 149.031 30.064C150.119 29.968 150.903 29.92 151.383 29.92C154.935 29.92 157.911 30.656 160.311 32.128C162.743 33.6 164.535 35.6 165.687 38.128C166.871 40.624 167.463 43.424 167.463 46.528C167.463 49.952 166.855 53.024 165.639 55.744C164.455 58.432 162.615 60.576 160.119 62.176C157.623 63.744 154.487 64.528 150.711 64.528ZM150.327 60.544C153.079 60.544 155.191 59.504 156.663 57.424C158.167 55.312 158.919 51.92 158.919 47.248C158.919 42.736 158.119 39.36 156.519 37.12C154.951 34.88 152.759 33.76 149.943 33.76C149.399 33.76 149.015 33.792 148.791 33.856V60.448C149.111 60.512 149.623 60.544 150.327 60.544ZM184.79 64.624C181.718 64.624 179.062 63.92 176.822 62.512C174.614 61.072 172.918 59.04 171.734 56.416C170.55 53.792 169.958 50.752 169.958 47.296C169.958 43.68 170.566 40.576 171.782 37.984C172.998 35.36 174.71 33.36 176.918 31.984C179.158 30.608 181.766 29.92 184.742 29.92C187.814 29.92 190.47 30.64 192.71 32.08C194.95 33.52 196.662 35.552 197.846 38.176C199.062 40.768 199.67 43.808 199.67 47.296C199.67 50.88 199.046 53.984 197.798 56.608C196.582 59.2 194.854 61.184 192.614 62.56C190.374 63.936 187.766 64.624 184.79 64.624ZM184.79 61.12C186.55 61.12 187.974 60.112 189.062 58.096C190.182 56.08 190.742 52.416 190.742 47.104C190.742 42.048 190.23 38.512 189.206 36.496C188.182 34.48 186.742 33.472 184.886 33.472C183.126 33.472 181.686 34.48 180.566 36.496C179.478 38.512 178.934 42.16 178.934 47.44C178.934 52.496 179.446 56.048 180.47 58.096C181.526 60.112 182.966 61.12 184.79 61.12ZM232.712 34.816C233.352 35.072 233.976 35.648 234.584 36.544C235.224 37.44 235.688 38.304 235.976 39.136L222.104 49.216L235.976 59.728C235.688 60.528 235.224 61.392 234.584 62.32C233.976 63.216 233.352 63.792 232.712 64.048L214.808 50.512V47.968L232.712 34.816ZM256.083 56.464C256.083 58.064 256.515 59.184 257.379 59.824C258.275 60.432 259.619 60.736 261.411 60.736C261.411 61.28 261.299 61.888 261.075 62.56C260.883 63.2 260.627 63.68 260.307 64H244.611C244.259 63.68 243.971 63.2 243.747 62.56C243.555 61.888 243.459 61.28 243.459 60.736C245.155 60.736 246.451 60.416 247.347 59.776C248.275 59.136 248.739 58.032 248.739 56.464V39.088C248.739 38.064 248.019 37.552 246.579 37.552C246.099 37.552 245.571 37.616 244.995 37.744C244.451 37.84 243.971 37.984 243.555 38.176L242.259 35.776L249.747 31.408C250.739 30.832 251.539 30.448 252.147 30.256C252.787 30.032 253.347 29.92 253.827 29.92C254.627 29.92 255.203 30.192 255.555 30.736C255.907 31.248 256.083 31.84 256.083 32.512V56.464ZM279.146 56.464C279.146 58.064 279.578 59.184 280.442 59.824C281.338 60.432 282.682 60.736 284.474 60.736C284.474 61.28 284.362 61.888 284.138 62.56C283.946 63.2 283.69 63.68 283.37 64H267.674C267.322 63.68 267.034 63.2 266.81 62.56C266.618 61.888 266.522 61.28 266.522 60.736C268.218 60.736 269.514 60.416 270.41 59.776C271.338 59.136 271.802 58.032 271.802 56.464V39.088C271.802 38.064 271.082 37.552 269.642 37.552C269.162 37.552 268.634 37.616 268.058 37.744C267.514 37.84 267.034 37.984 266.618 38.176L265.322 35.776L272.81 31.408C273.802 30.832 274.602 30.448 275.21 30.256C275.85 30.032 276.41 29.92 276.89 29.92C277.69 29.92 278.266 30.192 278.618 30.736C278.97 31.248 279.146 31.84 279.146 32.512V56.464ZM302.928 28C303.568 28.032 304.32 28.208 305.184 28.528C306.048 28.816 306.704 29.184 307.152 29.632L292.8 73.984C292.16 73.952 291.392 73.776 290.496 73.456C289.632 73.168 288.976 72.816 288.528 72.4L302.928 28ZM325.223 64.48C316.103 64.48 311.543 58.848 311.543 47.584C311.543 41.408 312.743 36.944 315.143 34.192C317.543 31.408 320.935 30.016 325.319 30.016C329.735 30.016 333.127 31.408 335.495 34.192C337.863 36.944 339.047 41.424 339.047 47.632C339.047 58.864 334.439 64.48 325.223 64.48ZM325.223 61.12C326.279 61.12 327.191 60.768 327.959 60.064C328.727 59.328 329.335 57.968 329.783 55.984C330.231 54 330.455 51.184 330.455 47.536C330.455 43.632 330.231 40.656 329.783 38.608C329.335 36.528 328.743 35.136 328.007 34.432C327.271 33.728 326.375 33.376 325.319 33.376C324.263 33.376 323.351 33.728 322.583 34.432C321.847 35.136 321.239 36.544 320.759 38.656C320.311 40.736 320.087 43.744 320.087 47.68C320.087 51.264 320.311 54.048 320.759 56.032C321.207 58.016 321.799 59.36 322.535 60.064C323.303 60.768 324.199 61.12 325.223 61.12ZM360.171 46.24C362.827 46.24 364.955 46.96 366.555 48.4C368.187 49.808 369.003 51.872 369.003 54.592C369.003 56.544 368.395 58.256 367.179 59.728C365.963 61.2 364.267 62.352 362.091 63.184C359.947 63.984 357.515 64.384 354.795 64.384C352.555 64.384 350.555 64.096 348.795 63.52C347.035 62.944 345.643 62.112 344.619 61.024C343.627 59.936 343.131 58.656 343.131 57.184C343.131 55.84 343.499 54.8 344.235 54.064C345.003 53.328 345.963 52.96 347.115 52.96C348.203 52.96 349.083 53.28 349.755 53.92C350.459 54.56 350.811 55.344 350.811 56.272C350.811 56.784 350.699 57.328 350.475 57.904C350.251 58.48 349.915 58.96 349.467 59.344C349.819 59.632 350.347 59.824 351.051 59.92C351.787 59.984 352.779 60.016 354.027 60.016C355.979 60.016 357.483 59.536 358.539 58.576C359.595 57.584 360.123 56.24 360.123 54.544C360.123 52.688 359.659 51.12 358.731 49.84C357.803 48.56 356.363 47.904 354.411 47.872C353.195 48.192 352.251 48.416 351.579 48.544L350.619 45.664C353.467 44.928 355.419 44.016 356.475 42.928C357.531 41.84 358.059 40.496 358.059 38.896C358.059 37.36 357.611 36.112 356.715 35.152C355.851 34.192 354.699 33.712 353.259 33.712C352.459 33.712 351.771 33.824 351.195 34.048C350.651 34.272 350.155 34.672 349.707 35.248C350.155 35.44 350.539 35.776 350.859 36.256C351.211 36.704 351.387 37.232 351.387 37.84C351.387 38.64 351.051 39.376 350.379 40.048C349.707 40.72 348.795 41.056 347.643 41.056C346.427 41.056 345.483 40.672 344.811 39.904C344.139 39.136 343.803 38.144 343.803 36.928C343.803 35.52 344.315 34.304 345.339 33.28C346.363 32.224 347.739 31.424 349.467 30.88C351.195 30.336 353.099 30.064 355.179 30.064C358.571 30.064 361.323 30.752 363.435 32.128C365.547 33.504 366.603 35.376 366.603 37.744C366.603 39.472 366.043 41.056 364.923 42.496C363.803 43.904 361.867 45.168 359.115 46.288L360.171 46.24ZM397.132 50.512L379.228 64.048C378.588 63.792 377.948 63.216 377.308 62.32C376.7 61.392 376.252 60.528 375.964 59.728L389.836 49.216L375.964 39.136C376.252 38.304 376.7 37.44 377.308 36.544C377.948 35.648 378.588 35.072 379.228 34.816L397.132 47.968V50.512Z" fill="white"/>
</svg>
